<svg width="289" height="29" viewBox="0 0 289 29" fill="none" xmlns="http://www.w3.org/2000/svg">
<path d="M0.76 28V1.28H7.08V11.48H18.08V1.28H24.4V28H18.08V17.04H7.08V28H0.76ZM27.9084 28V1.28H34.2284V22.44H47.0284V28H27.9084ZM60.1928 28.48C57.2861 28.48 54.8328 27.8933 52.8328 26.72C50.8595 25.52 49.4595 23.8533 48.6328 21.72L54.3928 19.64C54.7661 20.92 55.4595 21.8667 56.4728 22.48C57.5128 23.0933 58.7661 23.4 60.2328 23.4C61.0061 23.4 61.7528 23.32 62.4728 23.16C63.1928 22.9733 63.7928 22.68 64.2728 22.28C64.7528 21.8533 64.9928 21.2933 64.9928 20.6C64.9928 19.6667 64.5395 18.9467 63.6328 18.44C62.7261 17.9067 61.5528 17.5067 60.1128 17.24L56.8728 16.6C55.4328 16.3067 54.0861 15.8667 52.8328 15.28C51.6061 14.6667 50.6195 13.8667 49.8728 12.88C49.1261 11.8667 48.7528 10.6 48.7528 9.08C48.7528 7.64 49.0861 6.4 49.7528 5.36C50.4195 4.32 51.2995 3.46667 52.3928 2.8C53.5128 2.13333 54.7395 1.64 56.0728 1.32C57.4061 0.973332 58.7395 0.8 60.0728 0.8C61.5128 0.8 62.8995 1 64.2328 1.4C65.5928 1.8 66.8061 2.42667 67.8728 3.28C68.9395 4.10667 69.7528 5.21333 70.3128 6.6L64.5928 8.68C64.2461 7.77333 63.6195 7.08 62.7128 6.6C61.8328 6.12 60.7661 5.88 59.5128 5.88C58.2861 5.88 57.2595 6.10667 56.4328 6.56C55.6328 6.98667 55.2328 7.61333 55.2328 8.44C55.2328 9.10667 55.5128 9.68 56.0728 10.16C56.6328 10.64 57.3661 10.9733 58.2728 11.16L61.8728 11.88C62.9661 12.0933 64.0728 12.3733 65.1928 12.72C66.3128 13.04 67.3395 13.48 68.2728 14.04C69.2328 14.5733 70.0061 15.2933 70.5928 16.2C71.1795 17.1067 71.4728 18.2533 71.4728 19.64C71.4728 21.0533 71.1395 22.32 70.4728 23.44C69.8328 24.5333 68.9661 25.4533 67.8728 26.2C66.8061 26.9467 65.6061 27.52 64.2728 27.92C62.9395 28.2933 61.5795 28.48 60.1928 28.48Z" fill="#EAAA00"/>
<path d="M95.4109 28.48C92.6109 28.48 90.3843 27.8 88.7309 26.44C87.0776 25.08 85.9709 23.2667 85.4109 21L91.2109 18.88C91.3709 19.6267 91.6109 20.36 91.9309 21.08C92.2776 21.7733 92.7309 22.3467 93.2909 22.8C93.8776 23.2533 94.5843 23.48 95.4109 23.48C96.7443 23.48 97.7576 23.0667 98.4509 22.24C99.1709 21.3867 99.5309 19.8933 99.5309 17.76V1.28H105.851V17.76C105.851 21.0933 104.958 23.72 103.171 25.64C101.411 27.5333 98.8243 28.48 95.4109 28.48ZM119.074 28.48C117.234 28.48 115.514 28.1067 113.914 27.36C112.314 26.6133 111.02 25.4667 110.034 23.92C109.047 22.3467 108.554 20.3733 108.554 18C108.554 15.6 109.047 13.64 110.034 12.12C111.02 10.5733 112.314 9.44 113.914 8.72C115.514 7.97333 117.234 7.6 119.074 7.6C120.887 7.6 122.594 7.97333 124.194 8.72C125.794 9.44 127.087 10.5733 128.074 12.12C129.06 13.64 129.554 15.6 129.554 18C129.554 20.3733 129.06 22.3467 128.074 23.92C127.087 25.4667 125.794 26.6133 124.194 27.36C122.594 28.1067 120.887 28.48 119.074 28.48ZM119.074 23.76C120.3 23.76 121.314 23.32 122.114 22.44C122.94 21.56 123.354 20.08 123.354 18C123.354 15.8933 122.927 14.4267 122.074 13.6C121.247 12.7467 120.247 12.32 119.074 12.32C117.874 12.32 116.847 12.7467 115.994 13.6C115.167 14.4267 114.754 15.8933 114.754 18C114.754 20.08 115.167 21.56 115.994 22.44C116.82 23.32 117.847 23.76 119.074 23.76ZM144.643 28.48C143.577 28.48 142.457 28.2267 141.283 27.72C140.137 27.2133 139.243 26.4133 138.603 25.32L137.843 28H132.523V1.28H138.603V10.88C139.243 9.78667 140.137 8.97333 141.283 8.44C142.457 7.88 143.577 7.6 144.643 7.6C146.35 7.6 147.857 8.01333 149.163 8.84C150.497 9.66667 151.537 10.8533 152.283 12.4C153.03 13.92 153.403 15.76 153.403 17.92C153.403 20.08 153.03 21.96 152.283 23.56C151.537 25.1333 150.497 26.3467 149.163 27.2C147.857 28.0533 146.35 28.48 144.643 28.48ZM142.723 23.76C143.897 23.76 144.91 23.2533 145.763 22.24C146.643 21.2 147.083 19.76 147.083 17.92C147.083 16.1067 146.643 14.72 145.763 13.76C144.91 12.8 143.897 12.32 142.723 12.32C141.523 12.32 140.483 12.7733 139.603 13.68C138.75 14.56 138.323 16.0133 138.323 18.04C138.323 20.0933 138.75 21.56 139.603 22.44C140.483 23.32 141.523 23.76 142.723 23.76ZM179.724 28.48C176.817 28.48 174.364 27.8933 172.364 26.72C170.391 25.52 168.991 23.8533 168.164 21.72L173.924 19.64C174.297 20.92 174.991 21.8667 176.004 22.48C177.044 23.0933 178.297 23.4 179.764 23.4C180.537 23.4 181.284 23.32 182.004 23.16C182.724 22.9733 183.324 22.68 183.804 22.28C184.284 21.8533 184.524 21.2933 184.524 20.6C184.524 19.6667 184.071 18.9467 183.164 18.44C182.257 17.9067 181.084 17.5067 179.644 17.24L176.404 16.6C174.964 16.3067 173.617 15.8667 172.364 15.28C171.137 14.6667 170.151 13.8667 169.404 12.88C168.657 11.8667 168.284 10.6 168.284 9.08C168.284 7.64 168.617 6.4 169.284 5.36C169.951 4.32 170.831 3.46667 171.924 2.8C173.044 2.13333 174.271 1.64 175.604 1.32C176.937 0.973332 178.271 0.8 179.604 0.8C181.044 0.8 182.431 1 183.764 1.4C185.124 1.8 186.337 2.42667 187.404 3.28C188.471 4.10667 189.284 5.21333 189.844 6.6L184.124 8.68C183.777 7.77333 183.151 7.08 182.244 6.6C181.364 6.12 180.297 5.88 179.044 5.88C177.817 5.88 176.791 6.10667 175.964 6.56C175.164 6.98667 174.764 7.61333 174.764 8.44C174.764 9.10667 175.044 9.68 175.604 10.16C176.164 10.64 176.897 10.9733 177.804 11.16L181.404 11.88C182.497 12.0933 183.604 12.3733 184.724 12.72C185.844 13.04 186.871 13.48 187.804 14.04C188.764 14.5733 189.537 15.2933 190.124 16.2C190.711 17.1067 191.004 18.2533 191.004 19.64C191.004 21.0533 190.671 22.32 190.004 23.44C189.364 24.5333 188.497 25.4533 187.404 26.2C186.337 26.9467 185.137 27.52 183.804 27.92C182.471 28.2933 181.111 28.48 179.724 28.48ZM203.77 28.48C201.636 28.48 199.743 28.0667 198.09 27.24C196.463 26.3867 195.183 25.1733 194.25 23.6C193.343 22.0267 192.89 20.1467 192.89 17.96C192.89 15.8533 193.37 14.0267 194.33 12.48C195.316 10.9333 196.61 9.73333 198.21 8.88C199.836 8.02667 201.61 7.6 203.53 7.6C205.716 7.6 207.583 8.12 209.13 9.16C210.703 10.1733 211.89 11.5867 212.69 13.4C213.49 15.1867 213.823 17.2533 213.69 19.6H199.01C199.116 20.9867 199.623 22.0267 200.53 22.72C201.463 23.4133 202.49 23.76 203.61 23.76C204.543 23.76 205.343 23.6267 206.01 23.36C206.703 23.0667 207.236 22.7067 207.61 22.28L212.45 24.04C211.41 25.56 210.103 26.68 208.53 27.4C206.983 28.12 205.396 28.48 203.77 28.48ZM199.01 16H208.05C208.023 14.72 207.583 13.76 206.73 13.12C205.876 12.4533 204.863 12.12 203.69 12.12C202.543 12.12 201.516 12.4267 200.61 13.04C199.73 13.6533 199.196 14.64 199.01 16ZM216.586 28V8.16H221.386L222.466 11.8C223.079 10.2 223.919 9.08 224.986 8.44C226.053 7.8 227.346 7.52 228.866 7.6V13.68C228.546 13.6267 228.266 13.6 228.026 13.6C227.786 13.5733 227.519 13.56 227.226 13.56C225.759 13.56 224.626 13.9067 223.826 14.6C223.053 15.2933 222.666 16.4267 222.666 18V28H216.586ZM237.603 28L230.523 8.16H236.803L241.043 21.68L245.283 8.16H251.563L244.443 28H237.603ZM263.028 28.48C260.894 28.48 259.001 28.0667 257.348 27.24C255.721 26.3867 254.441 25.1733 253.508 23.6C252.601 22.0267 252.148 20.1467 252.148 17.96C252.148 15.8533 252.628 14.0267 253.588 12.48C254.574 10.9333 255.868 9.73333 257.468 8.88C259.094 8.02667 260.868 7.6 262.788 7.6C264.974 7.6 266.841 8.12 268.388 9.16C269.961 10.1733 271.148 11.5867 271.948 13.4C272.748 15.1867 273.081 17.2533 272.948 19.6H258.268C258.374 20.9867 258.881 22.0267 259.788 22.72C260.721 23.4133 261.748 23.76 262.868 23.76C263.801 23.76 264.601 23.6267 265.268 23.36C265.961 23.0667 266.494 22.7067 266.868 22.28L271.708 24.04C270.668 25.56 269.361 26.68 267.788 27.4C266.241 28.12 264.654 28.48 263.028 28.48ZM258.268 16H267.308C267.281 14.72 266.841 13.76 265.988 13.12C265.134 12.4533 264.121 12.12 262.947 12.12C261.801 12.12 260.774 12.4267 259.868 13.04C258.988 13.6533 258.454 14.64 258.268 16ZM275.844 28V8.16H280.644L281.724 11.8C282.337 10.2 283.177 9.08 284.244 8.44C285.31 7.8 286.604 7.52 288.124 7.6V13.68C287.804 13.6267 287.524 13.6 287.284 13.6C287.044 13.5733 286.777 13.56 286.484 13.56C285.017 13.56 283.884 13.9067 283.084 14.6C282.31 15.2933 281.924 16.4267 281.924 18V28H275.844Z" fill="#003057"/>
</svg>
